# xmcd
#
# Track frame offsets:
#	150
#	17694
#	37564
#	53979
#	72811
#	92208
#	113186
#	134873
#	151002
#	169340
#	190391
#	209119
#
# Disc length: 2955 seconds
#
# Revision: 0
# Processed by: cddbd v1.5.1PL0 Copyright (c) Steve Scherf et al.
# Submitted via: EasyCDDAExtractor 4.6.9.1
#
DISCID=a90b890c
DTITLE=Hiccups - at Ferguson's
DYEAR=2004
DGENRE=country
TTITLE0=When it all began
TTITLE1=The eyes of Jenny
TTITLE2=Think again
TTITLE3=Make me smile
TTITLE4=Outlaw Man
TTITLE5=Tuesday afternoon
TTITLE6=Nights in White Satin
TTITLE7=Not just for today
TTITLE8=Cowboy in L.A.
TTITLE9=Somebody
TTITLE10=Wisky in the Jar
TTITLE11=Seven bridges road
EXTD=
EXTT0=
EXTT1=
EXTT2=
EXTT3=
EXTT4=
EXTT5=
EXTT6=
EXTT7=
EXTT8=
EXTT9=
EXTT10=
EXTT11=
PLAYORDER=
